<svg width="25" height="24" viewBox="0 0 25 24" fill="none" xmlns="http://www.w3.org/2000/svg">
<path d="M12.8782 17.1763C12.623 17.175 12.3711 17.1169 12.1411 17.0062C11.9111 16.8955 11.7085 16.735 11.5482 16.5363L7.33824 11.4363C7.09224 11.1292 6.93743 10.7593 6.89146 10.3685C6.84549 9.9778 6.91021 9.58201 7.07824 9.22627C7.21452 8.9171 7.43692 8.65368 7.71886 8.46749C8.00081 8.2813 8.33039 8.1802 8.66824 8.17627H17.0882C17.4261 8.1802 17.7557 8.2813 18.0376 8.46749C18.3196 8.65368 18.542 8.9171 18.6782 9.22627C18.8463 9.58201 18.911 9.9778 18.865 10.3685C18.8191 10.7593 18.6643 11.1292 18.4182 11.4363L14.2082 16.5363C14.0479 16.735 13.8454 16.8955 13.6154 17.0062C13.3853 17.1169 13.1335 17.175 12.8782 17.1763Z" fill="#A0A3BD"/>
</svg>
